<svg xmlns="http://www.w3.org/2000/svg" viewBox="0 0 800 800"><g data-name="Secondary shapes"><path fill="#e9efff" d="M111.07,675.35c0-4.6,44.72-8.32,99.88-8.32s99.88,3.72,99.88,8.32-44.71,8.31-99.88,8.31S111.07,679.94,111.07,675.35Z"/><path fill="#e9efff" d="M213.1,631.81c0-4,97.48-7.17,217.71-7.17s217.71,3.21,217.71,7.17S551.05,639,430.81,639,213.1,635.78,213.1,631.81Z"/><path fill="none" stroke="#e9edf7" stroke-linecap="round" stroke-linejoin="round" stroke-width="2" d="M500.22,207.91c-3.41-24-11-70.87-49.46-114.9"/><path fill="none" stroke="#e9edf7" stroke-linecap="round" stroke-linejoin="round" stroke-width="2" d="M470.38,119.61c-2.51-1-10.52-2.47-19.9.2"/><path fill="none" stroke="#e9edf7" stroke-linecap="round" stroke-linejoin="round" stroke-width="2" d="M466.71,113.86c.73-5.26,2.53-14.45,4.72-18.94"/><path fill="none" stroke="#e9edf7" stroke-linecap="round" stroke-linejoin="round" stroke-width="2" d="M481,139.32c.59-4.4,3.68-15.13,6.17-17.93"/><path fill="none" stroke="#e9edf7" stroke-linecap="round" stroke-linejoin="round" stroke-width="2" d="M485.49,149.6c-3.24-2.25-9.77-8.15-21.17-5.59"/><path fill="none" stroke="#e9edf7" stroke-linecap="round" stroke-linejoin="round" stroke-width="2" d="M491.66,167.2c1-5.69,2-14.37,8.22-16.63"/><path fill="none" stroke="#e9edf7" stroke-linecap="round" stroke-linejoin="round" stroke-width="2" d="M494,175.39c-3.72-3.48-8.24-7.69-18.12-7.41"/><path fill="none" stroke="#e9edf7" stroke-linecap="round" stroke-linejoin="round" stroke-width="2" d="M496.59,186.61c2.38-6.56,6.46-12.51,10.63-14"/><path fill="none" stroke="#e9edf7" stroke-linecap="round" stroke-linejoin="round" stroke-width="2" d="M499.64,204c-3.28-4.17-10.32-11-18.85-10.15"/><path fill="#fbba05" d="M442.14,89.55a5.72,5.72,0,1,1,6.18,5.2A5.72,5.72,0,0,1,442.14,89.55Z"/><path fill="#fbba05" d="M467.1,94.45a4.38,4.38,0,1,1,4.74,4A4.39,4.39,0,0,1,467.1,94.45Z"/><path fill="#fbba05" d="M443.58,120.79a4.38,4.38,0,1,1,4.74,4A4.37,4.37,0,0,1,443.58,120.79Z"/><path fill="#fbba05" d="M484.81,120a4.38,4.38,0,1,1,4.74,4A4.38,4.38,0,0,1,484.81,120Z"/><path fill="#fbba05" d="M470.09,167.47a4.38,4.38,0,1,1,4.74,4A4.39,4.39,0,0,1,470.09,167.47Z"/><path fill="#fbba05" d="M504.89,171.79a4.38,4.38,0,1,1,4.74,4A4.37,4.37,0,0,1,504.89,171.79Z"/><path fill="#fbba05" d="M458.94,145a4.91,4.91,0,1,1,5.31,4.47A4.91,4.91,0,0,1,458.94,145Z"/><path fill="#fbba05" d="M496.16,149.79a4.91,4.91,0,1,1,5.31,4.47A4.91,4.91,0,0,1,496.16,149.79Z"/><path fill="#fbba05" d="M473.49,194.76a4.91,4.91,0,1,1,5.31,4.48A4.9,4.9,0,0,1,473.49,194.76Z"/><path fill="#e9edf7" d="M82,597.74c-10.94-5.15-19.09,2.83-23.52,8C61.9,607,76.24,611.55,82,597.74Z"/><path fill="none" stroke="#e9edf7" stroke-linecap="round" stroke-linejoin="round" stroke-width="2" d="M174,544.31c-17.47,18.13-51.66,41.72-93.79,54.1"/><path fill="#e9edf7" d="M165.43,559.6c-8.89,22.74,5.86,32.95,16.8,41.18C184.43,593.61,194,569.25,165.43,559.6Z"/><path fill="#e9edf7" d="M147.32,574.41c-11.46,15.91-2,26.79,4.83,35.38C155.29,604.65,167.63,587.63,147.32,574.41Z"/><path fill="#e9edf7" d="M124.78,586.31c-12.77,11-7.08,22-3.07,30.53C125.36,613.18,139.1,601.44,124.78,586.31Z"/><path fill="#e9edf7" d="M102.13,596c-9.52,4.34-8,11.89-7.12,17.69C97.83,612.15,108.06,607.52,102.13,596Z"/><path fill="#e9edf7" d="M155.82,551.23c-20.45,6.79-28.77-6.68-35.52-16.7C126.72,532.92,148.63,525.58,155.82,551.23Z"/><path fill="#e9edf7" d="M135.81,567c-16.51,8.53-25.4-1.83-32.5-9.46C108.56,555.28,126.25,546.08,135.81,567Z"/><path fill="#e9edf7" d="M109.48,581.94c-12.46,2.48-16.34-6-19.55-12.36C93.79,569.11,107.15,566.42,109.48,581.94Z"/><path fill="#e9edf7" d="M91,590.78c-6.87,2.75-10-1.69-12.52-5C80.67,585.11,88,582.14,91,590.78Z"/><path fill="#6b67e9" d="M176.45,489.83c5.57,33.76-19.24,54-59.53,55C118,513.35,140.42,479.75,176.45,489.83Z"/><path fill="#20196f" d="M636.53,461.91c-24.55,27.56-13.6,60.32,22.56,84.44C676.27,517.05,675.17,473.49,636.53,461.91Z"/><path fill="#e9edf7" d="M183.52,484.42c-1.64,4.38-43.65,17.55-46.69,9.68-2.37-6.13,4.07-8.78,6.49-9.56,3.8-1.23,13.15-3.58,11.8-6.25-2.45-4.84-25.33,4.13-31,6s-17.3,3.87-22.42-.35-6.71-6.52,3.46-9.19S136,469.29,129.61,465s-21.92,1.56-32.07,1.66S68,463.46,72.3,457.16c3.82-5.64,33.53-1.64,31.92-6.63-1.29-4-9.73-2-23.06-3.09s-25.88-2.25-26-10.22c-.07-6.41,8.31-3.91,15.5-3.41s17.23.8,15-2.65-37.59-2.47-40-12.79c-1.59-6.83,6-4.64,14.42-4.53s11.36-.48,10.82-2.15-11.84-3.64-18.08-4.56S38,402.74,38.67,396.9s10.51-3.33,13.93-1.55,7.43,2,7.95,1-10.35-7.67-6-12.74,14.08,2.31,16.12,8.63,5,14.79,7.32,14-.06-8.06-1.92-13.82-1.28-8.48.26-9c5.12-1.65,11.86,4.46,13.22,8.67s5.9,28.81,9.31,27.71S99.53,409.7,98,405s-5-15.52.7-17.36,13.51,11.8,15.82,20.84,5,24,7.58,23.13,2.54-13.17.71-18.83-7.93-14.82-.9-17.08,11.24,5.9,14.82,17c1.49,4.64,5.08,16.15,3.19,23.64-2.15,8.52-1.82,13.12.13,13.71,3.9,1.19,4.79-6.56,4.18-12.23s-3.61-23.2,5.3-22.64,7.71,15.26,7.81,21.22-1.35,27,3.25,27.34,2.41-10.93,2.11-14.51,1.43-11.16,4.41-9.62S186.46,476.61,183.52,484.42Z"/><path fill="#807dfb" d="M620.62,424.12c8.23,11.9,31.21,19.12,43.79,12.5s9.71-19.82,17.52-21.52,22.13,7.56,30.76.92c15.36-11.8-8.28-33.24,2.14-43.09s22.83,2.93,34-4.75-9.34-24.26-.39-38.17S771,283.1,751,277.52c-15.8-4.41-12.94,16.18-19.53,18.79-7.51,3-12.42-6.11-20-1-10.68,7.19-4.44,23.06-14.18,27.51s-18.06-7-25.71,4.89c-9.46,14.71,14.46,28.5-5.43,40s-23.12-17.93-36.4-12.55c-14.49,5.87-1.14,30.75-11.68,32.32C603.79,389.61,607.86,405.67,620.62,424.12Z"/><path fill="none" stroke="#6b67e9" stroke-linecap="round" stroke-linejoin="round" stroke-width="2" d="M623.07,427.09c3.47-1.72,13.84-1.44,17.78-7.55s5.39-13.83,11.18-19.36c12.89-12.34,27.75-7.58,35.91-14.67,6.06-5.26-.25-11.17,5.28-19.77s10-2.9,16.77-13.37c6-9.28-.52-12.63,5.21-22.52,8.6-14.86,21.64-13.79,24.62-19,2.61-4.56.19-7.85.19-7.85"/><path fill="#ffd03e" d="M630.63,433.75c.11,61.15,49.8,89.52,121.1,79.4C740.6,458,691.15,405.39,630.63,433.75Z"/><path fill="none" stroke="#fcba06" stroke-linecap="round" stroke-linejoin="round" stroke-width="2" d="M630.63,433.75c22.27,12.85,72,50.68,105.81,70.38"/><path fill="#423eaf" d="M485,269.74c14.44-37.89-9.59-67.25-56.14-77.91C422.7,228.63,440.83,272.94,485,269.74Z"/><path fill="#6b67e9" d="M489.13,267.12c46.84-4.57,64.94-44.73,52-98.62C499.63,181.07,463,222.82,489.13,267.12Z"/><path fill="none" stroke="#5652cc" stroke-linecap="round" stroke-linejoin="round" stroke-width="2" d="M489.13,267.12c8.21-18,33.55-58.89,46.16-86.25"/><path fill="#a9afd3" d="M613.81,504.43H350c-11.06,0-18.76-9-17.21-20L362,275.93c1.56-11.06,11.78-20,22.83-20H648.73c11.06,0,18.76,9,17.21,20l-29.3,208.48C635.08,495.46,624.86,504.43,613.81,504.43Z"/><path fill="#dde2f8" d="M601.29,504.43H337.43c-11.06,0-18.76-9-17.2-20l29.3-208.48c1.55-11.06,11.77-20,22.83-20H636.22c11,0,18.75,9,17.2,20l-29.3,208.48C622.56,495.46,612.34,504.43,601.29,504.43Z"/><path fill="#fff" d="M339.13,492.29a6.7,6.7,0,0,1-6.77-7.88l29.3-208.48a9.39,9.39,0,0,1,9-7.89H634.51a6.71,6.71,0,0,1,6.78,7.89L612,484.41a9.39,9.39,0,0,1-9,7.88Z"/><path fill="#807dfb" d="M453.36,348.56h75.81c8.56,0,14.54,6.94,13.33,15.51h0c-1.2,8.57-9.13,15.52-17.7,15.52H449c-8.57,0-14.54-6.95-13.33-15.52h0C436.87,355.5,444.8,348.56,453.36,348.56Z"/><path fill="#362e94" d="M459.6,364.07a4.77,4.77,0,0,1,4.57-4,3.4,3.4,0,0,1,3.44,4,4.77,4.77,0,0,1-4.57,4A3.4,3.4,0,0,1,459.6,364.07Z"/><path fill="#362e94" d="M476.59,364.07a4.75,4.75,0,0,1,4.56-4,3.4,3.4,0,0,1,3.45,4,4.78,4.78,0,0,1-4.57,4A3.4,3.4,0,0,1,476.59,364.07Z"/><path fill="#362e94" d="M493.57,364.07a4.77,4.77,0,0,1,4.57-4,3.4,3.4,0,0,1,3.44,4,4.77,4.77,0,0,1-4.57,4A3.4,3.4,0,0,1,493.57,364.07Z"/><path fill="#362e94" d="M510.56,364.07a4.75,4.75,0,0,1,4.56-4,3.39,3.39,0,0,1,3.44,4,4.76,4.76,0,0,1-4.56,4A3.4,3.4,0,0,1,510.56,364.07Z"/><polygon fill="#807dfb" points="537.65 398.62 430.81 398.62 431.6 393.04 538.43 393.04 537.65 398.62"/><polygon fill="#807dfb" points="474.22 409.38 429.3 409.38 430.08 403.81 475.01 403.81 474.22 409.38"/><polygon fill="#807dfb" points="513.82 409.38 480.66 409.38 481.44 403.81 514.6 403.81 513.82 409.38"/><path fill="#dde2f8" d="M530.85,608.09l14.57-103.66h-104L426.81,608.09a14.4,14.4,0,0,1-13.8,12.1h104A14.4,14.4,0,0,0,530.85,608.09Z"/><path fill="#dde2f8" d="M409.22,620.63h-104a8.58,8.58,0,0,0-8.5,7.39l-.59,4.24h104l.59-4.24A8.58,8.58,0,0,1,409.22,620.63Z"/><path fill="#bbc0e6" d="M545.42,504.43,530.85,608.09a14.4,14.4,0,0,1-13.8,12.1H409.22a8.58,8.58,0,0,0-8.5,7.38l-.59,4.24H524.38c11.11,0,21.38-9,23-20.11L562.4,504.43Z"/><polygon points="438.01 528.41 542.05 528.41 545.42 504.43 441.38 504.43 438.01 528.41" style="mix-blend-mode:multiply" fill="#e9edf7"/><path d="M636.22,255.91H590.91l-12.58,89.54C577,354.6,583.41,362,592.56,362h48.76l12.1-86.08C655,264.87,647.27,255.91,636.22,255.91Z" style="mix-blend-mode:multiply" fill="#dde2f8"/><path fill="#5652cc" stroke="#9f9cff" stroke-width="3" d="M672.57,347.72H574.06c-9.15,0-15.52-7.41-14.23-16.56l19-134.93c1.29-9.14,9.74-16.56,18.88-16.56h98.51c9.15,0,15.52,7.42,14.23,16.56l-19,134.93C690.16,340.31,681.71,347.72,672.57,347.72Z" opacity=".6"/><ellipse cx="638.62" cy="238.78" fill="#423eaf" rx="31.4" ry="27.28" transform="rotate(-42.99 638.613 238.777)"/><path fill="#9f9cff" d="M642.39,238.88a8.21,8.21,0,0,0,3.92-5.75,5.85,5.85,0,0,0-5.93-6.89,8.18,8.18,0,0,0-7.85,6.89,5.93,5.93,0,0,0,2.29,5.75c-7.35,1.76-8.5,6.86-9.33,12.74h22.65C649,245.74,649,240.64,642.39,238.88Z"/><polygon fill="#423eaf" points="592.8 282.12 672.27 282.12 671.69 286.25 592.22 286.25 592.8 282.12"/><polygon fill="#423eaf" points="591.23 293.29 670.7 293.29 670.12 297.43 590.64 297.43 591.23 293.29"/><polygon fill="#423eaf" points="589.66 304.47 669.13 304.47 668.54 308.61 589.07 308.61 589.66 304.47"/><g style="mix-blend-mode:multiply"><path fill="#6b67e9" stroke="#9f9cff" stroke-linecap="round" stroke-linejoin="round" stroke-width="3" d="M372.59,543.93h-90.7c-8.42,0-14.29-6.82-13.1-15.24l17.46-124.24a18.12,18.12,0,0,1,17.38-15.24h90.7c8.42,0,14.29,6.82,13.1,15.24L390,528.69A18.12,18.12,0,0,1,372.59,543.93Z"/><polygon fill="#423eaf" points="310.76 483.53 360.69 483.53 360.15 487.34 310.23 487.34 310.76 483.53"/><polygon fill="#423eaf" points="309.53 492.29 359.45 492.29 358.92 496.11 309 496.11 309.53 492.29"/><polygon fill="#423eaf" points="308.3 501.06 358.22 501.06 357.69 504.87 307.77 504.87 308.3 501.06"/><polygon fill="#423eaf" points="307.07 509.82 356.99 509.82 356.46 513.63 306.53 513.63 307.07 509.82"/><polygon fill="#423eaf" points="305.84 518.59 355.76 518.59 355.22 522.4 305.3 522.4 305.84 518.59"/><path d="M347.1,402.58c-14.72,0-28.38,12-30.44,26.7l-2,14.51c-1.43,10.15,3.16,19.58,11.69,24a1.15,1.15,0,0,0,1.45-.48,1,1,0,0,0-.28-1.39c-7.87-4.1-12.1-12.8-10.78-22.16l2-14.51c1.9-13.58,14.5-24.62,28.07-24.62s23.06,11,21.16,24.62l-2,14.51c-1.91,13.58-14.5,24.62-28.08,24.62a1.23,1.23,0,0,0-1.18,1,.88.88,0,0,0,.89,1c14.72,0,28.38-12,30.45-26.7l2-14.51C372.12,414.56,361.82,402.58,347.1,402.58Zm16.18,37.83a1.24,1.24,0,0,0,1.19-1l1.42-10.09c1.74-12.43-6.95-22.54-19.37-22.54a25.61,25.61,0,0,0-15.25,5.3,1.09,1.09,0,0,0-.33,1.46,1,1,0,0,0,1.45.13,23.27,23.27,0,0,1,13.84-4.81c11.28,0,19.16,9.18,17.58,20.46l-1.42,10.09A.88.88,0,0,0,363.28,440.41Zm-36.47-24.17a25.6,25.6,0,0,0-6,13l-2.05,14.51c-1.74,12.43,7,22.54,19.37,22.54,12,0,23.18-9.37,25.5-21.32a.87.87,0,0,0-.82-1.09,1.23,1.23,0,0,0-1.24,1c-2.1,10.85-12.27,19.35-23.14,19.35-11.28,0-19.17-9.18-17.58-20.46l2-14.51a23.28,23.28,0,0,1,5.45-11.83,1,1,0,0,0,0-1.45A1.09,1.09,0,0,0,326.81,416.24Zm11.92,45.93c10.13,0,19.53-8.25,21-18.38l2-14.51a16.91,16.91,0,0,0-1.31-9.5,1,1,0,0,0-1.38-.35,1.16,1.16,0,0,0-.56,1.43,15,15,0,0,1,1.17,8.42l-2,14.51c-1.27,9-9.6,16.3-18.59,16.3a1.22,1.22,0,0,0-1.18,1A.87.87,0,0,0,338.73,462.17ZM325,429.28l-2,14.51c-1.13,8,3,15,10.31,17.5a1.18,1.18,0,0,0,1.4-.67.93.93,0,0,0-.49-1.31c-6.47-2.17-10.14-8.41-9.14-15.52l2-14.51c1.27-9,9.6-16.3,18.59-16.3a14.34,14.34,0,0,1,8.86,2.9,1.09,1.09,0,0,0,1.48-.26,1,1,0,0,0-.05-1.45,16.23,16.23,0,0,0-10-3.27C335.8,410.9,326.4,419.14,325,429.28Zm4.65,3.9a1.22,1.22,0,0,0-1.19,1l-1.35,9.58C326,451.63,331.47,458,339.31,458a16.94,16.94,0,0,0,16.22-14.22l2-14.51c1.1-7.84-4.38-14.22-12.22-14.22a17,17,0,0,0-16.22,14.22.89.89,0,0,0,.9,1,1.26,1.26,0,0,0,1.19-1,14.45,14.45,0,0,1,13.84-12.14,10.32,10.32,0,0,1,10.43,12.14l-2,14.51a14.46,14.46,0,0,1-13.84,12.14,10.32,10.32,0,0,1-10.44-12.14l1.35-9.58A.87.87,0,0,0,329.63,433.18Zm21.22-.52-1.56,11.13a9.31,9.31,0,0,1-2.76,5.29,1,1,0,0,0-.12,1.47,1.06,1.06,0,0,0,1.48-.08,11.72,11.72,0,0,0,3.48-6.68l1.56-11.13a.88.88,0,0,0-.89-1A1.22,1.22,0,0,0,350.85,432.66Zm-14.36-6.58a.93.93,0,0,0-.34-1.37,1.18,1.18,0,0,0-1.45.53,11.4,11.4,0,0,0-1.41,4l-2,14.51a8.54,8.54,0,0,0,8.64,10.06,1.24,1.24,0,0,0,1.18-1,.88.88,0,0,0-.89-1,6.77,6.77,0,0,1-6.85-8l2-14.51A8.79,8.79,0,0,1,336.49,426.08Zm8.28-6.86a11.09,11.09,0,0,0-5.24,1.36A1.15,1.15,0,0,0,339,422a1,1,0,0,0,1.37.38,8.7,8.7,0,0,1,4.14-1.08,6.7,6.7,0,0,1,6.67,4.9.93.93,0,0,0,1.28.55,1.18,1.18,0,0,0,.75-1.36A8.44,8.44,0,0,0,344.77,419.22Zm-7.28,24.57.83-5.85a.89.89,0,0,0-.9-1,1.24,1.24,0,0,0-1.18,1l-.83,5.85a5,5,0,0,0,5.07,5.9,7,7,0,0,0,6.73-5.9l2-14.51a5,5,0,0,0-5.07-5.9,7,7,0,0,0-6.73,5.9l-.39,2.77a.89.89,0,0,0,.9,1,1.26,1.26,0,0,0,1.19-1l.38-2.77a4.55,4.55,0,0,1,4.36-3.82,3.25,3.25,0,0,1,3.28,3.82l-2,14.51a4.55,4.55,0,0,1-4.36,3.82A3.25,3.25,0,0,1,337.49,443.79Zm4.86,0,2-14.6a.88.88,0,0,0-.89-1,1.23,1.23,0,0,0-1.19,1l-2.05,14.6a.88.88,0,0,0,.89,1A1.23,1.23,0,0,0,342.35,443.79Z" style="mix-blend-mode:color-dodge" fill="#cf7d00"/></g><ellipse cx="630.63" cy="538.4" fill="#fcba06" stroke="#ffd03e" stroke-linecap="round" stroke-linejoin="round" stroke-width="3" rx="21.26" ry="18.47" transform="rotate(-42.99 630.638 538.406)"/><polygon fill="#ffea6e" points="641.36 536.25 633.08 536.25 634.24 527.98 629.94 527.98 628.78 536.25 620.51 536.25 619.9 540.55 628.18 540.55 627.01 548.83 631.31 548.83 632.48 540.55 640.75 540.55 641.36 536.25"/><path fill="#f6f6fb" stroke="#e9edf7" stroke-linecap="round" stroke-linejoin="round" stroke-width="3" d="M178.83,330.16H88.13c-8.42,0-14.29-6.82-13.1-15.24l9.22-65.61a18.12,18.12,0,0,1,17.38-15.24h90.7c8.42,0,14.29,6.82,13.1,15.24l-9.22,65.61A18.13,18.13,0,0,1,178.83,330.16Z"/><path fill="#dde2f8" d="M129.91,282.19a12.25,12.25,0,0,1,11.75-10.3,8.74,8.74,0,0,1,8.85,10.3,12.25,12.25,0,0,1-11.75,10.3A8.74,8.74,0,0,1,129.91,282.19Z"/><path fill="#f6f6fb" d="M135.6,282.19a5.48,5.48,0,0,1,5.26-4.61,3.92,3.92,0,0,1,4,4.61,5.49,5.49,0,0,1-5.27,4.61A3.91,3.91,0,0,1,135.6,282.19Z"/><path fill="none" stroke="#dde2f8" stroke-linecap="round" stroke-linejoin="round" stroke-width="3" d="M102.65,282.12c5.59,6.49,16.5,20.64,34.66,20.64s33.05-14.15,40.46-20.64c-5.59-6.5-16.5-20.65-34.66-20.65S110.06,275.62,102.65,282.12Z"/><path fill="#ffea6e" stroke="#ffd03e" stroke-linecap="round" stroke-linejoin="round" stroke-width="3" d="M309.66,150.68a2.83,2.83,0,0,0,2.68-2.16c.32-1.4.59-2.82.79-4.25s.34-2.86.41-4.26a2,2,0,0,0-2.08-2.16h-3.68a2,2,0,0,1-2.07-1.9,32.84,32.84,0,0,0-.46-3.62,2.74,2.74,0,0,1,1.47-2.81l3.45-1.84a2.7,2.7,0,0,0,1.41-3.07,39.73,39.73,0,0,0-3.22-7.36,2.22,2.22,0,0,0-3.05-.68l-3.44,1.84a2.27,2.27,0,0,1-2.91-.48,31.85,31.85,0,0,0-2.28-2.65,2.32,2.32,0,0,1-.06-3l2.29-3.19a2.27,2.27,0,0,0-.24-3.14,38.85,38.85,0,0,0-6.77-4.26,2.64,2.64,0,0,0-3.2,1l-2.28,3.19a2.7,2.7,0,0,1-3,1.07,33,33,0,0,0-3.48-1,2,2,0,0,1-1.58-2.34l.52-3.68a2,2,0,0,0-1.82-2.38c-1.39-.13-2.8-.19-4.23-.19s-2.87.06-4.29.19a2.84,2.84,0,0,0-2.49,2.38l-.52,3.68a2.88,2.88,0,0,1-2.23,2.34c-1.26.26-2.52.58-3.76,1a2.12,2.12,0,0,1-2.66-1.07l-1.39-3.19a2.15,2.15,0,0,0-2.92-1,56.46,56.46,0,0,0-8,4.26,2.63,2.63,0,0,0-1.12,3.14l1.39,3.19a2.58,2.58,0,0,1-.89,3c-1,.84-2.06,1.73-3,2.65a2.53,2.53,0,0,1-3,.48L235,116.57a2.56,2.56,0,0,0-3.24.68,57.2,57.2,0,0,0-5.3,7.36,2.21,2.21,0,0,0,.56,3.07l2.92,1.84a2.15,2.15,0,0,1,.68,2.81c-.54,1.18-1,2.39-1.47,3.62a2.87,2.87,0,0,1-2.61,1.9h-3.67A2.87,2.87,0,0,0,220.2,140c-.32,1.4-.59,2.82-.79,4.26s-.33,2.85-.4,4.25a2,2,0,0,0,2.07,2.16h3.68a2,2,0,0,1,2.07,1.91,33.15,33.15,0,0,0,.46,3.62,2.74,2.74,0,0,1-1.47,2.81l-3.45,1.84a2.69,2.69,0,0,0-1.41,3.06,39.57,39.57,0,0,0,3.23,7.37,2.22,2.22,0,0,0,3,.68l3.45-1.84a2.26,2.26,0,0,1,2.9.47,30.44,30.44,0,0,0,2.28,2.66,2.32,2.32,0,0,1,.06,3l-2.29,3.19a2.27,2.27,0,0,0,.24,3.14,38.85,38.85,0,0,0,6.77,4.26,2.66,2.66,0,0,0,3.2-1l2.29-3.19a2.68,2.68,0,0,1,3-1.07,35.06,35.06,0,0,0,3.49,1,2,2,0,0,1,1.57,2.34l-.52,3.67a2,2,0,0,0,1.83,2.39c1.38.12,2.79.19,4.22.19s2.87-.07,4.29-.19a2.85,2.85,0,0,0,2.49-2.39l.52-3.67a2.88,2.88,0,0,1,2.23-2.34c1.27-.26,2.52-.59,3.76-1a2.12,2.12,0,0,1,2.66,1.07l1.39,3.19a2.16,2.16,0,0,0,2.92,1,55.92,55.92,0,0,0,8-4.26,2.63,2.63,0,0,0,1.12-3.14l-1.39-3.19a2.58,2.58,0,0,1,.89-3c1.05-.84,2.06-1.73,3-2.66a2.53,2.53,0,0,1,3-.47l2.92,1.84a2.58,2.58,0,0,0,3.24-.68,56.62,56.62,0,0,0,5.3-7.37,2.2,2.2,0,0,0-.56-3.06L302.58,159a2.16,2.16,0,0,1-.68-2.81c.54-1.19,1-2.39,1.47-3.62a2.88,2.88,0,0,1,2.61-1.91Zm-46,11.79c-10,0-17.06-8.15-15.64-18.2s10.7-18.21,20.76-18.21,17.06,8.15,15.65,18.21S273.77,162.47,263.71,162.47Z"/><ellipse cx="266.27" cy="144.27" fill="none" stroke="#ffd03e" stroke-dasharray="5.95 5.95" stroke-linecap="round" stroke-miterlimit="10" stroke-width="2" rx="30.99" ry="26.93" transform="rotate(-42.99 266.281 144.27)"/><path fill="#e19100" d="M172.6,357.55c-20.93,22.73-21.9,59.18-21.9,63,0,9.05,17.75,34.11,17.75,34.11Z"/><path fill="#fcddd6" d="M290.18,331.34c1.17-2.5,4.33-11,8.67-13.89,3.38-2.24,16.62-8.47,18.13-6.78,1.37,1.54-8.16,5.09-9.47,6.63,1,1.86,4.5,8.87,1.05,11.05s-5.15,3.65-7.58,3.73c-2,.06-3.31,3.28-3.31,3.28Z"/><path fill="#20196f" d="M161.73,464.54c.63,50.75,9.41,58.89,12.45,108.07,2.48,40.09-11.31,70.72-13,84.26h9.22c6.78-18,50-83.56,37.26-192.33Z"/><path fill="#ffd3c9" d="M159,660.24a37,37,0,0,0,2.14-3.37h9.22c-.9,2.61-1.44,4.83-1.09,6.13C166.87,663.92,163.37,661.55,159,660.24Z"/><path fill="#20196f" d="M159,660.24c4.37,1.31,7.87,3.68,10.27,2.76,1.27.92,20,7.65,21.87,9s1.66,3.4-.4,3.4c-3,0-27.84-1.09-27.84-1.09-.5.54-.91,1.09-.91,1.09h-5.67C154.63,672.42,155.09,663.62,159,660.24Z"/><path fill="#362e94" d="M161.73,464.54c0,46.25,30.19,48.34,50.48,93.24,13.92,30.81,16.69,91,17.31,99.09h9.22c5-21.93,19.62-105.63-9.22-192.33Z"/><path fill="#ffd3c9" d="M229.55,660.24c0-1.53,0-3.37,0-3.37h9.22c-.35,2.61.73,4.83,1.08,6.13C237.43,663.92,233.92,661.55,229.55,660.24Z"/><path fill="#20196f" d="M229.55,660.24c4.37,1.31,7.88,3.68,10.27,2.76,1.27.92,20,7.65,21.86,9s1.67,3.4-.39,3.4c-3,0-27.84-1.09-27.84-1.09-.5.54-.91,1.09-.91,1.09h-5.67C225.18,672.42,225.64,663.62,229.55,660.24Z"/><path fill="#fcba06" d="M288.39,330s-17.12,31.22-23.77,34.85c-8.59,1.32-31.81-11.77-50.23-13l-6.48-.65c-9.81-.77-24.83.31-24.83.31-13.25,4.71-16.21,10.71-19.7,35.09s-1.65,77.93-1.65,77.93h67.79c2.33-14.2.67-56.94-3.88-80.47,12.8-4.69,32.56,5.43,46-.52,15.22-8.76,20.68-27.5,28.6-48.47C300.23,335.08,294.86,332.83,288.39,330Z"/><path fill="#ffd3c9" d="M207.17,312.81c.84,5.64,5.14,22.26,2,28.37-2.62,5-8.2,6-17.27,3.09s-9.79-19.24-11.07-23.94C178.76,312.89,205.39,300.94,207.17,312.81Z"/><path fill="#ffd3c9" d="M200.35,343.86c.5,2.88,1.76,7.1,1.76,7.1-1.24,1.68-19.58,3.8-17.79.81.64-5.28.22-17.53.22-17.53Z"/><path fill="#20196f" d="M183.14,307.28c9.22-4.38,21.19-13.59,22.55-12.46.25.21-.33.86,0,1.11.47.41,4.62-6.14,8.43-3.65s1.83,14.85-6.91,20.53-.33,11.32-4.22,14.47-3.38,14.2-10,14.44-10.37,4.36-10.26.21-3.81-12.31-3.56-19.36S178,309.71,183.14,307.28Z"/><path fill="#f7d3c9" d="M200.77,325.11c-.11-1.66.66-3.07,1.73-3.14s2,1.22,2.13,2.88-.66,3.06-1.73,3.13S200.88,326.76,200.77,325.11Z"/><path fill="#ed9f00" d="M225.64,384.07c11.18-4.1,27.68,3.12,40.63,1-6.62.41-28.69-6.49-46-5.28-18.71,1.31-.26,7.69,1.57,18s3.58,39.43,1,66.74h6.72C231.85,450.34,230.19,407.6,225.64,384.07Z"/><path fill="#ffd03e" d="M381.94,700.33l-12.61-5a2.63,2.63,0,0,0-2.63.38l-10.64,8.41a2.67,2.67,0,0,0-1,2.47L357,720a2.67,2.67,0,0,0,1.65,2.09l12.6,5a2.68,2.68,0,0,0,2.64-.39l10.64-8.41a2.66,2.66,0,0,0,1-2.47l-2-13.42A2.64,2.64,0,0,0,381.94,700.33Z"/><path fill="#e9edf7" d="M697.65,571.55,705,590.89a2.9,2.9,0,0,0,5,.81l13.1-16a2.91,2.91,0,0,0-1.79-4.71l-20.41-3.34A2.92,2.92,0,0,0,697.65,571.55Z"/><path fill="#9f9cff" d="M165.46,76.44V103a3.73,3.73,0,0,0,5.6,3.23l23-13.26a3.73,3.73,0,0,0,0-6.46l-23-13.25A3.73,3.73,0,0,0,165.46,76.44Z"/></g></svg>